<?xml version="1.0" encoding="utf-8"?>
<!-- Generator: Adobe Illustrator 23.0.0, SVG Export Plug-In . SVG Version: 6.00 Build 0)  -->
<svg version="1.1" id="Layer_1" xmlns="http://www.w3.org/2000/svg" xmlns:xlink="http://www.w3.org/1999/xlink" x="0px" y="0px"
	 viewBox="0 0 11.1 12.6" style="enable-background:new 0 0 11.1 12.6;" xml:space="preserve">
<style type="text/css">
	.st0{fill:#0057FF;}
</style>
<path class="st0" d="M5.5,6.3c1.7,0,3.2-1.4,3.2-3.2S7.3,0,5.5,0S2.4,1.4,2.4,3.2S3.8,6.3,5.5,6.3z M7.7,7.1H7.3
	C6.8,7.4,6.2,7.5,5.5,7.5S4.3,7.4,3.7,7.1H3.3C1.5,7.1,0,8.6,0,10.4v1c0,0.7,0.5,1.2,1.2,1.2h8.7c0.7,0,1.2-0.5,1.2-1.2v-1
	C11.1,8.6,9.6,7.1,7.7,7.1z"/>
</svg>
