<?xml version="1.0" encoding="utf-8"?>
<!-- Generator: Adobe Illustrator 23.0.0, SVG Export Plug-In . SVG Version: 6.00 Build 0)  -->
<svg version="1.1" id="Layer_1" xmlns="http://www.w3.org/2000/svg" xmlns:xlink="http://www.w3.org/1999/xlink" x="0px" y="0px"
	 viewBox="0 0 17.9 12.6" style="enable-background:new 0 0 17.9 12.6;" xml:space="preserve">
<style type="text/css">
	.st0{fill:#C2C2C4;}
</style>
<path class="st0" d="M2.7,5.4c1,0,1.8-0.8,1.8-1.8S3.7,1.8,2.7,1.8S0.9,2.6,0.9,3.6S1.7,5.4,2.7,5.4z M15.2,5.4c1,0,1.8-0.8,1.8-1.8
	s-0.8-1.8-1.8-1.8s-1.8,0.8-1.8,1.8S14.3,5.4,15.2,5.4z M16.1,6.3h-1.8c-0.5,0-0.9,0.2-1.3,0.5c1.1,0.6,1.9,1.7,2.1,3.1H17
	c0.5,0,0.9-0.4,0.9-0.9V8.1C17.9,7.1,17.1,6.3,16.1,6.3z M9,6.3c1.7,0,3.1-1.4,3.1-3.1S10.7,0,9,0S5.8,1.4,5.8,3.1S7.2,6.3,9,6.3z
	 M11.1,7.2h-0.2C10.3,7.5,9.7,7.6,9,7.6S7.6,7.5,7,7.2H6.8c-1.8,0-3.2,1.4-3.2,3.2v0.8c0,0.7,0.6,1.3,1.3,1.3H13
	c0.7,0,1.3-0.6,1.3-1.3v-0.8C14.4,8.6,12.9,7.2,11.1,7.2z M4.9,6.8C4.5,6.5,4.1,6.3,3.6,6.3H1.8C0.8,6.3,0,7.1,0,8.1V9
	c0,0.5,0.4,0.9,0.9,0.9h1.8C2.9,8.5,3.7,7.4,4.9,6.8L4.9,6.8z"/>
</svg>
